<?xml version="1.0" encoding="UTF-8"?>
<svg width="32px" height="32px" viewBox="0 0 32 32" version="1.1" xmlns="http://www.w3.org/2000/svg" xmlns:xlink="http://www.w3.org/1999/xlink">
    <!-- Generator: Sketch 55.2 (78181) - https://sketchapp.com -->
    <title>Desktop</title>
    <desc>Created with Sketch.</desc>
    <defs>
        <polygon id="path-1" points="0.0167377816 0.030167928 14.7648884 0.030167928 14.7648884 8.69802997 0.0167377816 8.69802997"></polygon>
        <polygon id="path-3" points="0 0.00649396884 14.748154 0.00649396884 14.748154 8.67437626 0 8.67437626"></polygon>
    </defs>
    <g id="Desktop" stroke="none" stroke-width="1" fill="none" fill-rule="evenodd">
        <rect id="Rectangle" fill="#EC111A" x="2" y="2" width="28" height="28" rx="2"></rect>
        <g id="Logo-/-Flying-S-/-18px" transform="translate(6.000000, 6.000000)">
            <g id="Group-9" transform="translate(1.558238, 0.519412)">
                <g id="Group-3" transform="translate(1.831996, 0.003612)">
                    <mask id="mask-2" fill="white">
                        <use xlink:href="#path-1"></use>
                    </mask>
                    <g id="Clip-2"></g>
                    <path d="M11.6710302,3.50393497 L6.46646287,3.50393497 C3.49816304,3.50393497 1.05364751,5.77635153 0.734746974,8.69802997 L0.733747704,8.69802997 C0.276814594,7.86090203 0.0167377816,6.89814753 0.0167377816,5.87382857 C0.0167377816,2.64645432 2.59868631,0.030167928 5.78366131,0.030167928 L14.7649051,0.030167928 L11.6710302,3.50393497 Z" id="Fill-1" fill="#FFFFFF" mask="url(#mask-2)"></path>
                </g>
                <g id="Group-6" transform="translate(0.000000, 9.994333)">
                    <mask id="mask-4" fill="white">
                        <use xlink:href="#path-3"></use>
                    </mask>
                    <g id="Clip-5"></g>
                    <path d="M3.09386151,5.20058897 L8.29842888,5.20058897 C11.2667287,5.20058897 13.7112442,2.92817241 14.0301448,0.00649396884 L14.0311441,0.00649396884 C14.4880772,0.843588154 14.748154,1.80634266 14.748154,2.83069537 C14.748154,6.05806962 12.1662054,8.67438976 8.98123045,8.67438976 L-1.33236072e-05,8.67438976 L3.09386151,5.20058897 Z" id="Fill-4" fill="#FFFFFF" mask="url(#mask-4)"></path>
                </g>
                <path d="M12.9305441,9.35123413 C12.9305441,11.9435225 10.8566914,14.044983 8.29845886,14.044983 C5.74019304,14.044983 3.66634027,11.9435225 3.66634027,9.35123413 C3.66634027,6.75894573 5.74019304,4.65748526 8.29845886,4.65748526 C10.8566914,4.65748526 12.9305441,6.75894573 12.9305441,9.35123413" id="Fill-7" fill="#FFFFFF"></path>
            </g>
        </g>
    </g>
</svg>